<svg width="66" height="66" viewBox="0 0 66 66" fill="none" xmlns="http://www.w3.org/2000/svg">
<path fill-rule="evenodd" clip-rule="evenodd" d="M33 65.5C50.9497 65.5 65.5 50.9497 65.5 33C65.5 15.0503 50.9497 0.5 33 0.5C15.0503 0.5 0.5 15.0503 0.5 33C0.5 50.9497 15.0503 65.5 33 65.5ZM34.5275 21.5275C34.9845 21.071 35.6041 20.8146 36.25 20.8146C36.8959 20.8146 37.5155 21.071 37.9725 21.5275L47.7225 31.2775C48.179 31.7345 48.4354 32.3541 48.4354 33C48.4354 33.6459 48.179 34.2655 47.7225 34.7225L37.9725 44.4725C37.7493 44.712 37.4802 44.9041 37.1812 45.0373C36.8823 45.1705 36.5595 45.2421 36.2322 45.2479C35.9049 45.2537 35.5798 45.1935 35.2763 45.0709C34.9728 44.9483 34.6971 44.7658 34.4656 44.5344C34.2342 44.3029 34.0517 44.0272 33.9291 43.7237C33.8065 43.4202 33.7463 43.0951 33.7521 42.7678C33.7579 42.4405 33.8295 42.1177 33.9627 41.8188C34.0959 41.5198 34.288 41.2507 34.5275 41.0275L40.1175 35.4375H20C19.3535 35.4375 18.7335 35.1807 18.2764 34.7236C17.8193 34.2665 17.5625 33.6465 17.5625 33C17.5625 32.3535 17.8193 31.7335 18.2764 31.2764C18.7335 30.8193 19.3535 30.5625 20 30.5625H40.1175L34.5275 24.9725C34.071 24.5155 33.8146 23.8959 33.8146 23.25C33.8146 22.6041 34.071 21.9845 34.5275 21.5275Z" fill="#1E1E1E"/>
</svg>
