<svg width="391" height="298" viewBox="0 0 391 298" fill="none" xmlns="http://www.w3.org/2000/svg">
<rect width="390" height="298" transform="translate(0.857422)" fill="white"/>
<path d="M117.134 170.42C113.174 170.42 109.534 169.5 106.214 167.66C102.894 165.78 100.254 163.2 98.2941 159.92C96.3741 156.6 95.4141 152.86 95.4141 148.7C95.4141 144.54 96.3741 140.82 98.2941 137.54C100.254 134.22 102.894 131.64 106.214 129.8C109.534 127.96 113.174 127.04 117.134 127.04C121.134 127.04 124.774 127.96 128.054 129.8C131.374 131.64 133.994 134.22 135.914 137.54C137.834 140.82 138.794 144.54 138.794 148.7C138.794 152.86 137.834 156.6 135.914 159.92C133.994 163.2 131.374 165.78 128.054 167.66C124.734 169.5 121.094 170.42 117.134 170.42ZM117.134 159.5C120.134 159.5 122.494 158.52 124.214 156.56C125.974 154.6 126.854 151.98 126.854 148.7C126.854 145.34 125.974 142.7 124.214 140.78C122.494 138.82 120.134 137.84 117.134 137.84C114.094 137.84 111.714 138.82 109.994 140.78C108.274 142.7 107.414 145.34 107.414 148.7C107.414 152.02 108.274 154.66 109.994 156.62C111.714 158.54 114.094 159.5 117.134 159.5ZM142.161 153.14C142.161 149.66 142.781 146.62 144.021 144.02C145.301 141.42 147.041 139.42 149.241 138.02C151.441 136.62 153.881 135.92 156.561 135.92C158.721 135.92 160.641 136.38 162.321 137.3C164.041 138.18 165.381 139.4 166.341 140.96V125.6H178.161V170H166.341V165.32C165.421 166.88 164.121 168.12 162.441 169.04C160.761 169.96 158.781 170.42 156.501 170.42C153.821 170.42 151.381 169.72 149.181 168.32C147.021 166.92 145.301 164.92 144.021 162.32C142.781 159.68 142.161 156.62 142.161 153.14ZM166.401 153.14C166.401 150.98 165.801 149.28 164.601 148.04C163.441 146.8 162.001 146.18 160.281 146.18C158.521 146.18 157.061 146.8 155.901 148.04C154.741 149.24 154.161 150.94 154.161 153.14C154.161 155.3 154.741 157.02 155.901 158.3C157.061 159.54 158.521 160.16 160.281 160.16C162.001 160.16 163.441 159.54 164.601 158.3C165.801 157.06 166.401 155.34 166.401 153.14ZM217.022 152.78C217.022 153.7 216.962 154.62 216.842 155.54H194.582C194.702 157.38 195.202 158.76 196.082 159.68C197.002 160.56 198.162 161 199.562 161C201.522 161 202.922 160.12 203.762 158.36H216.302C215.782 160.68 214.762 162.76 213.242 164.6C211.762 166.4 209.882 167.82 207.602 168.86C205.322 169.9 202.802 170.42 200.042 170.42C196.722 170.42 193.762 169.72 191.162 168.32C188.602 166.92 186.582 164.92 185.102 162.32C183.662 159.72 182.942 156.66 182.942 153.14C182.942 149.62 183.662 146.58 185.102 144.02C186.542 141.42 188.542 139.42 191.102 138.02C193.702 136.62 196.682 135.92 200.042 135.92C203.362 135.92 206.302 136.6 208.862 137.96C211.422 139.32 213.422 141.28 214.862 143.84C216.302 146.36 217.022 149.34 217.022 152.78ZM205.022 149.84C205.022 148.4 204.542 147.28 203.582 146.48C202.622 145.64 201.422 145.22 199.982 145.22C198.542 145.22 197.362 145.62 196.442 146.42C195.522 147.18 194.922 148.32 194.642 149.84H205.022ZM237.975 158.9L244.275 136.34H256.815L245.235 170H230.595L219.015 136.34H231.555L237.975 158.9ZM258.879 153.14C258.879 149.66 259.499 146.62 260.739 144.02C262.019 141.42 263.739 139.42 265.899 138.02C268.099 136.62 270.539 135.92 273.219 135.92C275.539 135.92 277.539 136.38 279.219 137.3C280.899 138.22 282.199 139.46 283.119 141.02V136.34H294.879V170H283.119V165.32C282.199 166.88 280.879 168.12 279.159 169.04C277.479 169.96 275.499 170.42 273.219 170.42C270.539 170.42 268.099 169.72 265.899 168.32C263.739 166.92 262.019 164.92 260.739 162.32C259.499 159.68 258.879 156.62 258.879 153.14ZM283.119 153.14C283.119 150.98 282.519 149.28 281.319 148.04C280.159 146.8 278.719 146.18 276.999 146.18C275.239 146.18 273.779 146.8 272.619 148.04C271.459 149.24 270.879 150.94 270.879 153.14C270.879 155.3 271.459 157.02 272.619 158.3C273.779 159.54 275.239 160.16 276.999 160.16C278.719 160.16 280.159 159.54 281.319 158.3C282.519 157.06 283.119 155.34 283.119 153.14Z" fill="#272727"/>
</svg>
