<svg width="66" height="66" viewBox="0 0 66 66" fill="none" xmlns="http://www.w3.org/2000/svg">
<path fill-rule="evenodd" clip-rule="evenodd" d="M33 65.5C15.0503 65.5 0.5 50.9497 0.5 33C0.5 15.0503 15.0503 0.5 33 0.5C50.9497 0.5 65.5 15.0503 65.5 33C65.5 50.9497 50.9497 65.5 33 65.5ZM31.4725 21.5275C31.0155 21.071 30.3959 20.8146 29.75 20.8146C29.1041 20.8146 28.4845 21.071 28.0275 21.5275L18.2775 31.2775C17.821 31.7345 17.5646 32.3541 17.5646 33C17.5646 33.6459 17.821 34.2655 18.2775 34.7225L28.0275 44.4725C28.2507 44.712 28.5198 44.9041 28.8188 45.0373C29.1177 45.1705 29.4405 45.2421 29.7678 45.2479C30.0951 45.2537 30.4202 45.1935 30.7237 45.0709C31.0272 44.9483 31.3029 44.7658 31.5344 44.5344C31.7658 44.3029 31.9483 44.0272 32.0709 43.7237C32.1935 43.4202 32.2537 43.0951 32.2479 42.7678C32.2421 42.4405 32.1705 42.1177 32.0373 41.8188C31.9041 41.5198 31.712 41.2507 31.4725 41.0275L25.8825 35.4375H46C46.6465 35.4375 47.2665 35.1807 47.7236 34.7236C48.1807 34.2665 48.4375 33.6465 48.4375 33C48.4375 32.3535 48.1807 31.7335 47.7236 31.2764C47.2665 30.8193 46.6465 30.5625 46 30.5625H25.8825L31.4725 24.9725C31.929 24.5155 32.1854 23.8959 32.1854 23.25C32.1854 22.6041 31.929 21.9845 31.4725 21.5275Z" fill="#1E1E1E"/>
</svg>
